<?xml version="1.0" encoding="utf-8"?>
<svg viewBox="23.308 154.9209 459.546 77.7201" xmlns="http://www.w3.org/2000/svg">
  <path d="M 45.575 211.692 L 38.553 225.982 L 23.308 225.982 L 52.367 170.906 L 70.966 170.906 L 80.628 225.982 L 64.98 225.982 L 62.907 211.692 L 45.575 211.692 Z M 58.986 184.235 L 51.003 200.517 L 61.297 200.517 L 58.986 184.235 Z" fill="#1B1464" style="transform-origin: 51.968px 198.444px;"/>
  <path d="M 124.045 225.981 L 109.68 225.981 L 110.798 219.913 L 106.012 224.625 C 103.06 226.22 99.869 227.099 95.955 227.099 C 87.255 227.099 83.103 222.47 83.103 216.163 C 83.103 213.927 83.424 211.533 84.057 207.941 L 88.448 183.355 L 102.813 183.355 L 98.981 204.749 C 98.505 207.546 98.184 209.856 98.184 211.378 C 98.184 214.97 99.623 217.363 103.85 217.363 C 108.397 217.363 111.991 212.816 113.75 203.155 L 117.179 183.355 L 131.544 183.355 L 124.045 225.981 Z" fill="#1B1464" style="transform-origin: 107.324px 205.227px;"/>
  <path d="M 150.553 208.335 C 150.158 210.49 149.995 211.69 149.995 213.204 C 149.995 216.879 152.469 217.751 158.217 217.036 L 156.621 226.056 C 153.267 226.772 150.158 227.092 146.647 227.092 C 137.948 227.092 134.832 224.379 134.832 218.869 C 134.832 216.871 135.07 214.479 135.785 210.408 L 138.977 192.606 L 132.513 192.606 L 134.108 183.668 L 140.497 183.668 L 142.494 172.65 L 156.86 172.65 L 154.945 183.668 L 164.203 183.668 L 162.608 192.606 L 153.349 192.606 L 150.553 208.335 Z" fill="#1B1464" style="transform-origin: 148.358px 199.871px;"/>
  <path d="M 208.344 201.232 C 208.344 214.964 199.323 227.093 181.842 227.093 C 168.036 227.093 160.931 219.348 160.931 208.098 C 160.931 194.367 169.952 182.237 187.433 182.237 C 201.24 182.237 208.344 189.983 208.344 201.232 Z M 193.181 201.553 C 193.181 195.962 191.026 191.973 186.397 191.973 C 179.531 191.973 176.102 199.719 176.102 207.778 C 176.102 213.369 178.256 217.357 182.886 217.357 C 189.744 217.357 193.181 209.619 193.181 201.553 Z" fill="#1B1464" style="transform-origin: 184.637px 204.665px;"/>
  <path d="M 255.442 183.751 C 255.442 194.843 247.54 201.15 238.439 202.351 C 235.807 202.671 233.727 202.671 230.931 202.671 L 220.636 202.671 L 216.484 225.982 L 211.534 225.982 L 221.27 170.906 L 236.515 170.906 C 239.311 170.906 241.465 170.906 243.94 171.227 C 250.895 172.181 255.442 176.333 255.442 183.751 Z M 250.098 184.392 C 250.098 178.883 246.981 176.252 242.836 175.528 C 241.003 175.208 238.849 175.133 236.209 175.133 L 225.512 175.133 L 221.36 198.444 L 232.057 198.444 C 234.688 198.444 236.843 198.362 238.841 198.041 C 244.827 197.087 250.098 192.935 250.098 184.392 Z" fill="#1B1464" style="transform-origin: 233.488px 198.444px;"/>
  <path d="M 287.938 193.017 C 287.938 194.612 287.617 196.693 287.222 199.241 L 284.509 214.166 C 283.868 217.916 283.547 220.95 283.234 225.982 L 278.202 225.982 L 278.918 218.401 L 276.123 222.314 C 273.005 225.587 268.697 227.1 263.59 227.1 C 257.605 227.1 252.177 223.745 252.177 216.485 C 252.177 204.11 265.827 199.801 281.952 201.001 L 282.191 199.405 C 282.749 196.453 282.906 194.933 282.906 193.658 C 282.906 189.505 280.752 186.635 275.003 186.635 C 268.22 186.635 263.83 189.745 262.151 196.289 L 257.045 196.289 C 258.805 187.992 265.663 182.64 275.168 182.64 C 283.942 182.64 287.938 186.867 287.938 193.017 Z M 280.431 209.694 L 281.311 204.744 C 267.743 203.386 257.522 207.375 257.522 216 C 257.522 220.629 260.877 223.186 265.745 223.186 C 272.454 223.186 279.074 217.118 280.431 209.694 Z" fill="#1B1464" style="transform-origin: 270.057px 204.87px;"/>
  <path d="M 330.244 193.731 C 330.244 196.207 330.087 197.802 329.289 202.357 L 324.98 225.981 L 320.03 225.981 L 324.183 202.916 C 324.824 199.405 325.137 197.087 325.137 195.095 C 325.137 190.146 322.505 186.634 315.96 186.717 C 308.774 186.798 301.833 191.823 299.515 204.914 L 299.515 204.989 L 295.839 225.981 L 290.89 225.981 L 298.315 183.757 L 303.265 183.757 L 301.826 191.823 L 304.942 187.193 C 308.93 183.839 312.926 182.647 317.555 182.647 C 325.934 182.639 330.244 186.947 330.244 193.731 Z" fill="#1B1464" style="transform-origin: 310.567px 204.314px;"/>
  <path d="M 369.605 193.017 C 369.605 194.612 369.285 196.693 368.89 199.241 L 366.174 214.166 C 365.535 217.916 365.216 220.95 364.902 225.982 L 359.867 225.982 L 360.585 218.401 L 357.79 222.314 C 354.673 225.587 350.365 227.1 345.257 227.1 C 339.271 227.1 333.844 223.745 333.844 216.485 C 333.844 204.11 347.494 199.801 363.617 201.001 L 363.856 199.405 C 364.417 196.453 364.573 194.933 364.573 193.658 C 364.573 189.505 362.418 186.635 356.672 186.635 C 349.886 186.635 345.496 189.745 343.819 196.289 L 338.712 196.289 C 340.471 187.992 347.33 182.64 356.835 182.64 C 365.61 182.64 369.605 186.867 369.605 193.017 Z M 362.098 209.694 L 362.978 204.744 C 349.41 203.386 339.189 207.375 339.189 216 C 339.189 220.629 342.544 223.186 347.412 223.186 C 354.112 223.186 360.741 217.118 362.098 209.694 Z" fill="#1B1464" style="transform-origin: 351.725px 204.87px;"/>
  <path d="M 404.567 195.566 L 399.461 195.566 C 398.985 189.499 395.867 186.628 390.441 186.628 C 383.897 186.628 380.861 190.542 380.861 194.612 C 380.861 199.003 384.217 201.158 389.242 202.597 C 397.462 204.989 401.855 208.187 401.855 214.89 C 401.855 222.389 395.548 227.421 385.967 227.421 C 375.51 227.421 370.641 221.673 370.403 214.01 L 375.51 214.01 C 375.986 220.957 380.222 223.507 386.529 223.507 C 392.355 223.507 396.504 220.234 396.504 215.284 C 396.504 210.893 393.631 208.657 386.766 206.667 C 380.698 204.915 375.435 202.201 375.435 195.089 C 375.435 188.387 380.942 182.64 390.842 182.64 C 399.856 182.64 404.329 187.746 404.567 195.566 Z" fill="#1B1464" style="transform-origin: 387.485px 205.031px;"/>
  <path d="M 480.415 179.101 L 463.211 167.278 L 459.608 164.801 C 459.604 164.801 459.604 164.796 459.597 164.796 C 459.51 164.734 459.412 164.674 459.317 164.621 C 459.285 164.598 459.246 164.575 459.209 164.556 C 459.128 164.509 459.047 164.466 458.968 164.427 C 458.917 164.398 458.858 164.371 458.805 164.347 C 458.684 164.291 458.554 164.232 458.427 164.186 C 458.397 164.173 458.365 164.162 458.339 164.153 C 458.157 164.087 457.97 164.031 457.785 163.987 C 457.735 163.974 457.684 163.958 457.632 163.949 C 457.618 163.945 457.602 163.939 457.589 163.939 C 457.481 163.916 457.37 163.892 457.256 163.877 C 456.973 163.834 456.683 163.814 456.395 163.814 C 456.288 163.814 456.181 163.819 456.069 163.828 C 456.017 163.828 455.965 163.832 455.913 163.837 C 455.809 163.848 455.697 163.861 455.597 163.877 C 455.496 163.89 455.391 163.91 455.293 163.933 C 455.222 163.946 455.153 163.962 455.085 163.979 C 455.023 163.993 454.958 164.009 454.896 164.032 C 454.723 164.079 454.556 164.132 454.39 164.197 L 454.39 164.208 C 453.992 164.359 453.614 164.55 453.249 164.801 L 432.435 179.101 C 430.912 180.149 429.999 181.882 429.999 183.731 L 429.999 222.829 C 429.999 226.746 432.33 230.154 435.669 231.719 C 435.781 231.772 435.888 231.818 435.996 231.867 C 436.146 231.93 436.29 231.986 436.443 232.042 C 436.537 232.075 436.628 232.108 436.723 232.137 C 436.821 232.17 436.922 232.204 437.023 232.232 C 437.098 232.256 437.173 232.279 437.248 232.299 C 437.336 232.322 437.424 232.346 437.509 232.365 C 437.652 232.404 437.799 232.431 437.945 232.46 C 438.095 232.489 438.246 232.517 438.399 232.536 C 438.422 232.54 438.448 232.546 438.471 232.546 C 438.624 232.569 438.773 232.588 438.927 232.598 C 439.097 232.618 439.27 232.627 439.446 232.632 C 439.573 232.635 439.7 232.641 439.83 232.641 L 477.16 232.641 C 480.291 232.641 482.854 230.078 482.854 226.947 L 482.854 223.75 L 458.182 223.75 C 458.182 222.797 458.958 222.027 459.907 222.027 L 477.781 222.027 C 480.585 222.027 482.851 219.756 482.851 216.956 L 482.851 201.28 L 462.308 201.28 C 464.365 200.008 467.15 197.981 471.245 194.903 C 474.595 192.383 478.798 190.699 482.851 189.571 L 482.851 183.735 C 482.851 181.882 481.941 180.149 480.415 179.101 Z M 454.39 167.317 C 454.465 167.274 454.54 167.237 454.615 167.198 C 454.697 167.16 454.778 167.122 454.857 167.093 C 454.96 167.046 455.072 167.007 455.179 166.975 C 455.27 166.945 455.362 166.922 455.457 166.898 C 455.521 166.885 455.587 166.869 455.658 166.856 C 455.734 166.842 455.802 166.833 455.877 166.823 C 455.955 166.809 456.03 166.803 456.105 166.8 C 456.21 166.789 456.32 166.786 456.422 166.786 C 456.487 166.786 456.555 166.786 456.621 166.789 C 456.696 166.794 456.774 166.8 456.845 166.809 C 456.92 166.813 456.993 166.823 457.067 166.839 C 457.096 166.839 457.123 166.848 457.152 166.852 C 457.273 166.871 457.387 166.895 457.501 166.928 C 457.547 166.937 457.589 166.951 457.638 166.966 C 457.723 166.99 457.804 167.019 457.886 167.052 C 457.97 167.085 458.049 167.114 458.127 167.152 C 458.287 167.223 458.44 167.303 458.587 167.393 C 458.652 167.426 458.714 167.464 458.773 167.511 C 458.848 167.564 458.923 167.616 458.995 167.673 C 459.034 167.702 459.066 167.729 459.102 167.762 C 459.177 167.818 459.246 167.88 459.311 167.947 C 459.36 167.989 459.408 168.033 459.444 168.079 C 459.49 168.131 459.542 168.184 459.591 168.24 C 460.061 168.781 460.393 169.44 460.537 170.171 C 460.583 170.432 460.612 170.699 460.612 170.973 C 460.612 173.283 458.737 175.161 456.425 175.161 C 454.113 175.161 452.242 173.283 452.242 170.973 C 452.238 169.399 453.109 168.028 454.39 167.317 Z" fill="#169BD7" style="transform-origin: 456.426px 198.228px;"/>
  <path d="M 471.245 194.901 C 467.15 197.979 464.365 200.005 462.304 201.277 L 482.851 201.277 L 482.851 216.953 C 482.851 219.755 480.581 222.024 477.781 222.024 L 459.905 222.024 C 458.956 222.024 458.182 222.793 458.182 223.748 L 482.851 223.748 L 482.851 226.541 L 455.505 226.541 C 453.542 226.541 451.977 224.928 452.013 222.964 L 452.013 222.845 C 452.071 216.211 446.71 210.689 440.085 210.551 C 435.943 210.465 432.262 212.449 429.999 215.537 C 428.512 217.558 427.638 220.045 427.638 222.74 C 427.638 224.068 427.847 225.346 428.241 226.54 L 427.351 226.54 C 427.351 226.54 422.472 226.54 420.112 226.54 C 417.741 226.54 417.458 224.817 417.458 224.817 C 417.458 224.817 415.524 219.584 415.377 217.287 C 415.233 214.996 417.956 212.7 417.956 212.7 L 425.704 211.049 L 429.141 207.609 L 419.75 209.112 C 420.754 207.679 422.401 207.033 422.401 207.033 C 424.081 206.236 426.794 205.534 429.996 204.927 C 440.861 202.854 457.325 201.857 457.821 201.8 C 459.807 201.583 462.92 199.499 470.446 193.839 C 474.05 191.13 478.557 189.351 482.851 188.178 L 482.851 189.563 C 478.798 190.696 474.591 192.38 471.245 194.901 Z" fill="#1B1464" style="transform-origin: 449.111px 207.359px;"/>
  <path d="M 449.72 222.742 C 449.72 224.09 449.453 225.373 448.964 226.544 C 447.477 230.122 443.946 232.638 439.827 232.638 C 435.712 232.638 432.18 230.122 430.69 226.544 C 430.201 225.373 429.934 224.09 429.934 222.742 C 429.934 217.277 434.365 212.848 439.827 212.848 C 445.292 212.848 449.72 217.277 449.72 222.742 Z" fill="#1B1464" style="transform-origin: 439.827px 222.743px;"/>
  <path d="M 449.72 222.742 C 449.72 224.09 449.453 225.373 448.964 226.544 C 447.477 230.122 443.946 232.638 439.827 232.638 C 435.712 232.638 432.18 230.122 430.69 226.544 C 430.201 225.373 429.934 224.09 429.934 222.742 C 429.934 217.277 434.365 212.848 439.827 212.848 C 445.292 212.848 449.72 217.277 449.72 222.742 Z" fill="#1B1464" style="transform-origin: 439.827px 222.743px;"/>
  <path d="M 455.558 174.017 C 455.166 174.017 454.821 173.912 454.533 173.688 C 453.618 172.972 453.666 171.409 454.677 169.044 C 455.544 167.017 457.035 164.602 458.877 162.243 C 460.723 159.884 462.702 157.851 464.463 156.519 C 466.511 154.965 468.018 154.543 468.933 155.259 C 469.85 155.974 469.801 157.539 468.79 159.903 C 467.923 161.931 466.432 164.346 464.59 166.705 C 461.629 170.491 457.827 174.017 455.558 174.017 Z M 467.887 156.346 C 467.557 156.346 466.765 156.56 465.321 157.653 C 463.657 158.913 461.766 160.854 459.999 163.117 C 458.228 165.381 456.803 167.685 455.982 169.603 C 455.075 171.724 455.3 172.479 455.411 172.565 C 455.926 172.969 459.294 171.164 463.465 165.826 C 465.236 163.563 466.661 161.258 467.479 159.341 C 468.389 157.219 468.164 156.465 468.053 156.38 C 468.03 156.362 467.975 156.346 467.887 156.346 Z" fill="#1B1464" style="transform-origin: 461.734px 164.469px;"/>
  <path d="M 454.387 164.199 L 454.387 167.318 C 454.99 166.982 455.685 166.787 456.425 166.787 C 457.693 166.787 458.825 167.353 459.595 168.242 L 459.595 164.796 C 458.043 163.734 456.089 163.535 454.387 164.199 Z" fill="#169BD7" style="transform-origin: 456.991px 166.029px;"/>
</svg>