<svg width="192" height="221" viewBox="0 0 192 221" fill="none" xmlns="http://www.w3.org/2000/svg">
<g clip-path="url(#clip0_840_2)">
<path d="M184.477 68.5685L135.688 35.039L125.464 28.0132C125.453 28.0132 125.453 28.0022 125.436 28.0022C125.183 27.8257 124.913 27.6548 124.642 27.5059C124.549 27.4397 124.438 27.3735 124.334 27.3184C124.107 27.186 123.876 27.0647 123.65 26.9544C123.501 26.8717 123.341 26.7945 123.192 26.7283C122.845 26.5684 122.481 26.4029 122.117 26.2706C122.034 26.232 121.94 26.2044 121.863 26.1768C121.35 25.9893 120.826 25.8294 120.291 25.7081C120.159 25.6695 120.01 25.6254 119.861 25.5978C119.822 25.5868 119.778 25.5702 119.74 25.5702C119.431 25.5041 119.122 25.4379 118.797 25.3938C117.992 25.2724 117.17 25.2173 116.359 25.2173C116.05 25.2173 115.742 25.2283 115.433 25.2559C115.284 25.2559 115.135 25.2669 114.986 25.2835C114.688 25.311 114.379 25.3496 114.087 25.3938C113.806 25.4324 113.508 25.4875 113.227 25.5537C113.023 25.5923 112.835 25.6364 112.637 25.686C112.46 25.7246 112.273 25.7688 112.096 25.8349C111.611 25.9673 111.142 26.1162 110.668 26.3037V26.3313C109.538 26.7614 108.462 27.3018 107.425 28.0132L48.3958 68.5685C44.0778 71.5409 41.4914 76.4546 41.4914 81.6991V192.572C41.4914 203.685 48.098 213.346 57.5723 217.786C57.8811 217.935 58.19 218.067 58.4988 218.205C58.9179 218.381 59.3315 218.541 59.7616 218.701C60.0319 218.795 60.2855 218.889 60.5558 218.971C60.837 219.065 61.1183 219.159 61.405 219.242C61.6201 219.308 61.8352 219.374 62.0503 219.429C62.2929 219.495 62.5466 219.562 62.7892 219.617C63.1918 219.727 63.6109 219.804 64.0245 219.887C64.4547 219.97 64.8738 220.047 65.315 220.102C65.3812 220.113 65.4473 220.13 65.519 220.13C65.9492 220.196 66.3793 220.251 66.8095 220.278C67.2948 220.334 67.7801 220.361 68.2764 220.372C68.6403 220.383 69.0043 220.4 69.3683 220.4H175.251C184.13 220.4 191.398 213.131 191.398 204.253V195.186H121.427C121.427 192.484 123.622 190.3 126.313 190.3H177.01C184.957 190.3 191.393 183.859 191.393 175.918V131.464H133.118C138.959 127.857 146.856 122.111 158.47 113.381C167.971 106.234 179.889 101.458 191.393 98.2598V81.7101C191.393 76.4545 188.812 71.5409 184.477 68.5685ZM110.663 35.1493C110.878 35.028 111.093 34.9232 111.308 34.8129C111.534 34.7026 111.765 34.5978 111.992 34.5151C112.289 34.3828 112.598 34.2725 112.907 34.1787C113.161 34.096 113.42 34.0298 113.69 33.9636C113.878 33.925 114.065 33.8809 114.269 33.8423C114.473 33.8037 114.672 33.7761 114.887 33.7486C115.102 33.71 115.317 33.6934 115.532 33.6824C115.83 33.6548 116.139 33.6438 116.431 33.6438C116.618 33.6438 116.806 33.6438 116.993 33.6548C117.208 33.6658 117.424 33.6824 117.628 33.71C117.843 33.721 118.047 33.7486 118.262 33.7927C118.345 33.7927 118.422 33.8202 118.504 33.8313C118.841 33.8864 119.166 33.9526 119.486 34.0464C119.618 34.0739 119.74 34.1125 119.878 34.1566C120.12 34.2228 120.346 34.3055 120.578 34.3993C120.821 34.493 121.047 34.5758 121.262 34.6805C121.72 34.8846 122.15 35.1107 122.569 35.3644C122.756 35.4581 122.933 35.5684 123.093 35.7008C123.308 35.8497 123.523 35.9986 123.727 36.1585C123.837 36.2412 123.931 36.3184 124.036 36.4122C124.24 36.5721 124.438 36.7486 124.626 36.9361C124.758 37.0574 124.896 37.1787 125.001 37.3111C125.133 37.46 125.282 37.6089 125.42 37.7688C126.754 39.3019 127.692 41.1714 128.1 43.2449C128.232 43.9839 128.315 44.7394 128.315 45.517C128.315 52.0685 122.999 57.3957 116.436 57.3957C109.885 57.3957 104.569 52.0685 104.569 45.517C104.563 41.0556 107.028 37.1677 110.663 35.1493Z" fill="#169BD7"/>
<path d="M158.47 113.376C146.856 122.105 138.959 127.852 133.118 131.458H191.393V175.913C191.393 175.915 191.393 175.918 191.393 175.921C191.388 183.864 184.949 190.295 177.01 190.295H126.308C123.617 190.295 121.422 192.473 121.422 195.181H191.387V203.106H113.833C108.264 203.106 103.824 198.528 103.929 192.959V192.622C104.089 173.811 88.8849 158.15 70.0907 157.758C58.3444 157.515 47.905 163.141 41.4859 171.898C37.2726 177.628 34.7965 184.681 34.7965 192.324C34.7965 196.091 35.3866 199.714 36.5061 203.1H33.9748C33.9748 203.1 20.1439 203.1 13.4435 203.1C6.72659 203.1 5.92144 198.214 5.92144 198.214C5.92144 198.214 0.434302 183.374 0.0151831 176.861C-0.387392 170.365 7.33321 163.852 7.33321 163.852L29.3039 159.17L39.0594 149.414L12.4178 153.677C15.2689 149.613 19.9399 147.782 19.9399 147.782C24.7046 145.521 32.3976 143.53 41.4804 141.81C72.2911 135.931 118.995 133.102 120.396 132.942C126.032 132.324 134.861 126.418 156.203 110.365C166.427 102.683 179.21 97.6367 191.387 94.3113V98.2378C179.889 101.453 167.966 106.229 158.47 113.376Z" fill="#1B1464"/>
<path d="M7.33321 163.852L29.3039 159.17L39.0594 149.414L12.4178 153.677L7.33321 163.852Z" fill="white"/>
<path d="M158.47 113.376C146.856 122.105 138.959 127.852 133.118 131.458H191.393L191.387 98.2378C179.889 101.453 167.966 106.229 158.47 113.376Z" fill="white"/>
<path d="M191.393 175.921C191.388 183.864 184.949 190.295 177.01 190.295H126.308C123.617 190.295 121.422 192.473 121.422 195.181H191.387L191.393 175.921Z" fill="white"/>
<path d="M41.4859 171.898C37.2726 177.628 34.7965 184.681 34.7965 192.324C34.7965 196.091 35.3866 199.714 36.5061 203.1H43.5L41.4859 171.898Z" fill="white"/>
<path d="M97.4272 192.33C97.4272 196.152 96.6662 199.791 95.282 203.111C91.0577 213.258 81.043 220.394 69.3683 220.394C57.6881 220.394 47.6734 213.258 43.4491 203.111C42.0649 199.791 41.3039 196.152 41.3039 192.33C41.3039 176.834 53.8719 164.271 69.3683 164.271C84.8647 164.271 97.4272 176.834 97.4272 192.33Z" fill="#1B1464"/>
<path d="M97.4272 192.33C97.4272 196.152 96.6662 199.791 95.282 203.111C91.0577 213.258 81.043 220.394 69.3683 220.394C57.6881 220.394 47.6734 213.258 43.4491 203.111C42.0649 199.791 41.3039 196.152 41.3039 192.33C41.3039 176.834 53.8719 164.271 69.3683 164.271C84.8647 164.271 97.4272 176.834 97.4272 192.33Z" fill="#1B1464"/>
<path d="M113.977 54.153C112.868 54.153 111.892 53.8552 111.076 53.221C108.473 51.1916 108.611 46.7577 111.479 40.0518C113.938 34.3 118.168 27.4507 123.396 20.7613C128.624 14.072 134.243 8.30911 139.234 4.53152C145.047 0.125261 149.315 -1.07143 151.913 0.957984C154.516 2.9874 154.378 7.42124 151.51 14.1271C149.05 19.879 144.821 26.7283 139.593 33.4176C131.199 44.1548 120.418 54.153 113.977 54.153ZM148.946 4.04071C148.014 4.04071 145.764 4.64733 141.666 7.74661C136.951 11.3201 131.591 16.8238 126.572 23.243C121.554 29.6621 117.512 36.197 115.185 41.6346C112.609 47.6511 113.249 49.7908 113.558 50.0335C115.025 51.1805 124.576 46.0629 136.405 30.925C141.424 24.5058 145.466 17.9709 147.793 12.5334C150.369 6.51682 149.729 4.37711 149.42 4.13446C149.354 4.08483 149.199 4.04071 148.946 4.04071Z" fill="#1B1464"/>
<path d="M110.657 26.3092V35.1548C112.367 34.2008 114.335 33.6493 116.436 33.6493C120.032 33.6493 123.247 35.2541 125.425 37.7743H125.431V28.0022C121.025 24.9912 115.488 24.4287 110.657 26.3092Z" fill="#169BD7"/>
</g>
<defs>
<clipPath id="clip0_840_2">
<rect width="191.398" height="220.4" fill="white"/>
</clipPath>
</defs>
</svg>
