<?xml version="1.0" encoding="utf-8"?>
<!-- Generator: Adobe Illustrator 25.4.1, SVG Export Plug-In . SVG Version: 6.00 Build 0)  -->
<svg version="1.1" id="Layer_1" xmlns="http://www.w3.org/2000/svg" xmlns:xlink="http://www.w3.org/1999/xlink" x="0px" y="0px"
	 viewBox="0 0 841.89 595.28" style="enable-background:new 0 0 841.89 595.28;" xml:space="preserve">
<style type="text/css">
	.st0{fill:#1B1464;}
	.st1{fill:#169BD7;}
</style>
<g>
	<g>
		<path class="st0" d="M195.1,532.01l-9.42,19.17h-20.45l38.98-73.88h24.95l12.96,73.88h-20.99l-2.78-19.17H195.1z M213.09,495.18
			l-10.71,21.84h13.81L213.09,495.18z"/>
		<path class="st0" d="M300.36,551.18h-19.27l1.5-8.14l-6.42,6.32c-3.96,2.14-8.24,3.32-13.49,3.32c-11.67,0-17.24-6.21-17.24-14.67
			c0-3,0.43-6.21,1.28-11.03l5.89-32.98h19.27l-5.14,28.7c-0.64,3.75-1.07,6.85-1.07,8.89c0,4.82,1.93,8.03,7.6,8.03
			c6.1,0,10.92-6.1,13.28-19.06l4.6-26.56h19.27L300.36,551.18z"/>
		<path class="st0" d="M335.92,527.51c-0.53,2.89-0.75,4.5-0.75,6.53c0,4.93,3.32,6.1,11.03,5.14l-2.14,12.1
			c-4.5,0.96-8.67,1.39-13.38,1.39c-11.67,0-15.85-3.64-15.85-11.03c0-2.68,0.32-5.89,1.28-11.35l4.28-23.88h-8.67l2.14-11.99h8.57
			l2.68-14.78h19.27l-2.57,14.78h12.42l-2.14,11.99h-12.42L335.92,527.51z"/>
		<path class="st0" d="M413.44,517.98c0,18.42-12.1,34.69-35.55,34.69c-18.52,0-28.05-10.39-28.05-25.48
			c0-18.42,12.1-34.69,35.55-34.69C403.91,492.5,413.44,502.89,413.44,517.98z M393.1,518.41c0-7.5-2.89-12.85-9.1-12.85
			c-9.21,0-13.81,10.39-13.81,21.2c0,7.5,2.89,12.85,9.1,12.85C388.49,539.61,393.1,529.23,393.1,518.41z"/>
		<path class="st0" d="M476.62,494.53c0,14.88-10.6,23.34-22.81,24.95c-3.53,0.43-6.32,0.43-10.07,0.43h-13.81l-5.57,31.27h-6.64
			l13.06-73.88h20.45c3.75,0,6.64,0,9.96,0.43C470.52,479.01,476.62,484.58,476.62,494.53z M469.45,495.39
			c0-7.39-4.18-10.92-9.74-11.89c-2.46-0.43-5.35-0.53-8.89-0.53h-14.35l-5.57,31.27h14.35c3.53,0,6.42-0.11,9.1-0.54
			C462.38,512.42,469.45,506.85,469.45,495.39z"/>
		<path class="st0" d="M520.21,506.96c0,2.14-0.43,4.93-0.96,8.35l-3.64,20.02c-0.86,5.03-1.29,9.1-1.71,15.85h-6.75l0.96-10.17
			l-3.75,5.25c-4.18,4.39-9.96,6.42-16.81,6.42c-8.03,0-15.31-4.5-15.31-14.24c0-16.6,18.31-22.38,39.94-20.77l0.32-2.14
			c0.75-3.96,0.96-6,0.96-7.71c0-5.57-2.89-9.42-10.6-9.42c-9.1,0-14.99,4.17-17.24,12.95h-6.85c2.36-11.13,11.56-18.31,24.31-18.31
			C514.85,493.04,520.21,498.71,520.21,506.96z M510.14,529.33l1.18-6.64c-18.2-1.82-31.91,3.53-31.91,15.1
			c0,6.21,4.5,9.64,11.03,9.64C499.44,547.43,508.32,539.29,510.14,529.33z"/>
		<path class="st0" d="M576.96,507.92c0,3.32-0.21,5.46-1.28,11.57l-5.78,31.69h-6.64l5.57-30.94c0.86-4.71,1.28-7.82,1.28-10.49
			c0-6.64-3.53-11.35-12.31-11.24c-9.64,0.11-18.95,6.85-22.06,24.41v0.1l-4.93,28.16h-6.64l9.96-56.64h6.64l-1.93,10.82l4.18-6.21
			c5.35-4.5,10.71-6.1,16.92-6.1C571.18,493.04,576.96,498.82,576.96,507.92z"/>
		<path class="st0" d="M629.76,506.96c0,2.14-0.43,4.93-0.96,8.35l-3.64,20.02c-0.86,5.03-1.29,9.1-1.71,15.85h-6.75l0.96-10.17
			l-3.75,5.25c-4.18,4.39-9.96,6.42-16.81,6.42c-8.03,0-15.31-4.5-15.31-14.24c0-16.6,18.31-22.38,39.94-20.77l0.32-2.14
			c0.75-3.96,0.96-6,0.96-7.71c0-5.57-2.89-9.42-10.6-9.42c-9.1,0-14.99,4.17-17.24,12.95h-6.85c2.36-11.13,11.56-18.31,24.31-18.31
			C624.4,493.04,629.76,498.71,629.76,506.96z M619.69,529.33l1.18-6.64c-18.2-1.82-31.91,3.53-31.91,15.1
			c0,6.21,4.5,9.64,11.03,9.64C608.98,547.43,617.87,539.29,619.69,529.33z"/>
		<path class="st0" d="M676.66,510.38h-6.85c-0.64-8.14-4.82-11.99-12.1-11.99c-8.78,0-12.85,5.25-12.85,10.71
			c0,5.89,4.5,8.78,11.24,10.71c11.03,3.21,16.92,7.5,16.92,16.49c0,10.06-8.46,16.81-21.31,16.81c-14.03,0-20.56-7.71-20.88-17.99
			h6.85c0.64,9.32,6.32,12.74,14.78,12.74c7.82,0,13.38-4.39,13.38-11.03c0-5.89-3.85-8.89-13.06-11.56
			c-8.14-2.35-15.2-5.99-15.2-15.53c0-8.99,7.39-16.7,20.67-16.7C670.34,493.04,676.34,499.89,676.66,510.38z"/>
	</g>
	<g>
		<g>
			<path class="st1" d="M561.48,166.51l-88.47-60.8l-18.54-12.74c-0.02,0-0.02-0.02-0.05-0.02c-0.46-0.32-0.95-0.63-1.44-0.9
				c-0.17-0.12-0.37-0.24-0.56-0.34c-0.41-0.24-0.83-0.46-1.24-0.66c-0.27-0.15-0.56-0.29-0.83-0.41c-0.63-0.29-1.29-0.59-1.95-0.83
				c-0.15-0.07-0.32-0.12-0.46-0.17c-0.93-0.34-1.88-0.63-2.85-0.85c-0.24-0.07-0.51-0.15-0.78-0.2c-0.07-0.02-0.15-0.05-0.22-0.05
				c-0.56-0.12-1.12-0.24-1.71-0.32c-1.46-0.22-2.95-0.32-4.42-0.32c-0.56,0-1.12,0.02-1.68,0.07c-0.27,0-0.54,0.02-0.81,0.05
				c-0.54,0.05-1.1,0.12-1.63,0.2c-0.51,0.07-1.05,0.17-1.56,0.29c-0.37,0.07-0.71,0.15-1.07,0.24c-0.32,0.07-0.66,0.15-0.98,0.27
				c-0.88,0.24-1.73,0.51-2.59,0.85v0.05c-2.05,0.78-4,1.76-5.88,3.05l-107.04,73.54c-7.83,5.39-12.52,14.3-12.52,23.81v201.05
				c0,20.15,11.98,37.67,29.16,45.72c0.56,0.27,1.12,0.51,1.68,0.76c0.76,0.32,1.51,0.61,2.29,0.9c0.49,0.17,0.95,0.34,1.44,0.49
				c0.51,0.17,1.02,0.34,1.54,0.49c0.39,0.12,0.78,0.24,1.17,0.34c0.44,0.12,0.9,0.24,1.34,0.34c0.73,0.2,1.49,0.34,2.24,0.49
				c0.78,0.15,1.54,0.29,2.34,0.39c0.12,0.02,0.24,0.05,0.37,0.05c0.78,0.12,1.56,0.22,2.34,0.27c0.88,0.1,1.76,0.15,2.66,0.17
				c0.66,0.02,1.32,0.05,1.98,0.05h192c16.1,0,29.28-13.18,29.28-29.28v-16.44H447.15c0-4.9,3.98-8.86,8.86-8.86h91.93
				c14.41,0,26.08-11.68,26.08-26.08v-80.61H468.35c10.59-6.54,24.91-16.96,45.97-32.79c17.23-12.96,38.84-21.62,59.7-27.42v-30.01
				C574.02,180.81,569.34,171.9,561.48,166.51z M427.63,105.91c0.39-0.22,0.78-0.41,1.17-0.61c0.41-0.2,0.83-0.39,1.24-0.54
				c0.54-0.24,1.1-0.44,1.66-0.61c0.46-0.15,0.93-0.27,1.42-0.39c0.34-0.07,0.68-0.15,1.05-0.22c0.37-0.07,0.73-0.12,1.12-0.17
				c0.39-0.07,0.78-0.1,1.17-0.12c0.54-0.05,1.1-0.07,1.63-0.07c0.34,0,0.68,0,1.02,0.02c0.39,0.02,0.78,0.05,1.15,0.1
				c0.39,0.02,0.76,0.07,1.15,0.15c0.15,0,0.29,0.05,0.44,0.07c0.61,0.1,1.2,0.22,1.78,0.39c0.24,0.05,0.46,0.12,0.71,0.2
				c0.44,0.12,0.85,0.27,1.27,0.44c0.44,0.17,0.85,0.32,1.24,0.51c0.83,0.37,1.61,0.78,2.37,1.24c0.34,0.17,0.66,0.37,0.95,0.61
				c0.39,0.27,0.78,0.54,1.15,0.83c0.2,0.15,0.37,0.29,0.56,0.46c0.37,0.29,0.73,0.61,1.07,0.95c0.24,0.22,0.49,0.44,0.68,0.68
				c0.24,0.27,0.51,0.54,0.76,0.83c2.42,2.78,4.12,6.17,4.86,9.93c0.24,1.34,0.39,2.71,0.39,4.12c0,11.88-9.64,21.54-21.54,21.54
				c-11.88,0-21.52-9.66-21.52-21.54C416.57,116.62,421.04,109.57,427.63,105.91z"/>
		</g>
		<g>
			<g>
				<path class="st0" d="M514.32,247.76c-21.06,15.83-35.38,26.25-45.97,32.79h105.67v80.61c0,14.41-11.68,26.08-26.08,26.08H456
					c-4.88,0-8.86,3.95-8.86,8.86h126.87v14.37H433.38c-10.1,0-18.15-8.3-17.96-18.4v-0.61c0.29-34.11-27.28-62.51-61.36-63.22
					c-21.3-0.44-40.23,9.76-51.87,25.64c-7.64,10.39-12.13,23.18-12.13,37.04c0,6.83,1.07,13.4,3.1,19.54h-4.59c0,0-25.08,0-37.23,0
					c-12.18,0-13.64-8.86-13.64-8.86s-9.95-26.91-10.71-38.72c-0.73-11.78,13.27-23.59,13.27-23.59l39.84-8.49l17.69-17.69
					l-48.31,7.73c5.17-7.37,13.64-10.69,13.64-10.69c8.64-4.1,22.59-7.71,39.06-10.83c55.87-10.66,140.56-15.79,143.1-16.08
					c10.22-1.12,26.23-11.83,64.93-40.94c18.54-13.93,41.72-23.08,63.8-29.11v7.12C553.16,226.14,531.54,234.8,514.32,247.76z"/>
			</g>
			<g>
				<path class="st0" d="M403.63,390.93c0,6.93-1.38,13.53-3.89,19.55c-7.66,18.4-25.82,31.34-46.99,31.34
					c-21.18,0-39.34-12.94-47-31.34c-2.51-6.02-3.89-12.62-3.89-19.55c0-28.1,22.79-50.88,50.89-50.88S403.63,362.83,403.63,390.93z
					"/>
			</g>
			<g>
				<path class="st0" d="M403.63,390.93c0,6.93-1.38,13.53-3.89,19.55c-7.66,18.4-25.82,31.34-46.99,31.34
					c-21.18,0-39.34-12.94-47-31.34c-2.51-6.02-3.89-12.62-3.89-19.55c0-28.1,22.79-50.88,50.89-50.88S403.63,362.83,403.63,390.93z
					"/>
			</g>
		</g>
		<g>
			<path class="st0" d="M433.64,140.37c-2.01,0-3.78-0.54-5.26-1.69c-4.72-3.68-4.47-11.72,0.73-23.88
				c4.46-10.43,12.13-22.85,21.61-34.98c9.48-12.13,19.67-22.58,28.72-29.43c10.54-7.99,18.28-10.16,22.99-6.48
				c4.72,3.68,4.47,11.72-0.73,23.88c-4.46,10.43-12.13,22.85-21.61,34.98C464.87,122.24,445.32,140.37,433.64,140.37z M497.05,49.5
				c-1.69,0-5.77,1.1-13.2,6.72c-8.55,6.48-18.27,16.46-27.37,28.1c-9.1,11.64-16.43,23.49-20.65,33.35
				c-4.67,10.91-3.51,14.79-2.95,15.23c2.66,2.08,19.98-7.2,41.43-34.65l0,0c9.1-11.64,16.43-23.49,20.65-33.35
				c4.67-10.91,3.51-14.79,2.95-15.23C497.79,49.58,497.51,49.5,497.05,49.5z"/>
		</g>
		<g>
			<path class="st1" d="M427.62,89.88v16.04c3.1-1.73,6.67-2.73,10.48-2.73c6.52,0,12.35,2.91,16.3,7.48h0.01V92.95
				C446.42,87.49,436.38,86.47,427.62,89.88z"/>
		</g>
	</g>
</g>
</svg>
