<svg width="136" height="48" viewBox="0 0 136 48" fill="none" xmlns="http://www.w3.org/2000/svg">
<g clip-path="url(#clip0_103_181)">
<path d="M68.6066 13.6883L61.8066 14.7099L60.2103 23.2658C60.2103 23.2658 56.5071 24.032 53.0593 24.032C51.3673 24.032 45.9401 24.0001 46.2911 20.2329C46.2911 20.2329 46.3551 19.9137 46.6423 19.4029C48.5898 15.8273 54.3043 13.3691 57.7521 12.1559L58.5823 10.7512C54.6556 12.2836 44.5033 16.7212 44.6311 21.2226C44.6311 21.2226 44.6311 21.3184 44.6311 21.478C44.6948 22.5634 45.4931 23.4573 46.3231 24.032C48.2706 25.3409 52.4208 26.4264 61.2638 25.2452C61.2638 25.2452 65.1588 25.1174 69.2133 24.1278C71.6076 23.5212 78.5991 21.3822 78.0883 17.232C77.6096 13.3691 70.8733 13.5606 68.6066 13.6883ZM70.3306 13.1137C70.9371 13.1137 71.5118 13.1137 72.0546 13.1775L65.1268 2.13152L52.4526 23.5212C52.8996 23.5212 53.3786 23.5212 53.8253 23.5212L65.1268 4.62165L70.3306 13.1137ZM73.3953 13.3371C79.3333 14.263 78.6311 17.9982 78.5991 18.1578C78.4396 18.924 78.1203 19.5944 77.6733 20.201L84.6011 31.3429H46.0996L49.4518 25.8517C44.0246 24.6705 44.1203 21.6057 44.1521 21.2865C44.0246 16.4339 54.2723 11.9005 59.0291 10.1127L65.1588 0.0563965L70.4583 8.5484C71.6713 8.51648 73.7786 8.5484 75.7578 8.86765C78.7588 9.34653 82.1428 10.4639 83.1326 13.1456C84.6328 15.6357 80.2273 19.2433 78.7588 20.2968L79.3973 15.7315C79.8761 14.9653 80.0038 13.816 79.6208 12.986C79.0461 11.7409 77.1306 10.3362 71.5118 10.2085L73.3953 13.3371ZM76.9391 21.031C76.5878 21.3822 76.1728 21.7015 75.7578 22.0207L79.9081 28.8527H50.6011L52.1653 26.2349C51.7183 26.2029 51.3033 26.1709 50.8883 26.1072L48.6216 29.9382H82.4941L76.9391 21.031ZM57.3053 12.8902C53.9211 14.1033 48.8451 16.4339 47.0573 19.6902C46.8658 20.0733 46.8018 20.2968 46.7701 20.3606C46.5786 22.3719 48.4941 23.2019 50.8883 23.4573L57.3053 12.8902ZM75.6301 9.37845C73.6508 9.0592 71.7673 9.02728 70.7136 9.02728L71.1288 9.6977C77.0348 9.76155 79.3016 11.1982 80.0358 12.7625C80.4826 13.7522 80.3551 14.9653 79.8441 15.8911L79.3973 19.1475C80.5466 18.2536 83.6751 15.508 82.7173 13.4649C82.6856 13.401 82.6536 13.3691 82.6536 13.3691C81.6638 10.6555 77.9288 9.72963 75.6301 9.37845ZM64.3926 23.4254L65.6376 15.54C65.6376 15.54 67.7766 15.093 69.7878 15.1569C71.7353 15.2207 74.0338 15.7634 74.2893 17.9024C74.2893 17.9024 74.2893 17.9982 74.2893 18.1578C74.1936 19.0198 73.7146 19.8498 73.1081 20.4883C70.9691 22.6911 67.1061 23.2339 64.3926 23.4254ZM73.6188 18.5728C73.6826 18.3813 73.7466 18.1259 73.7466 17.9343C73.6188 16.9766 72.9803 16.4019 72.0863 16.0508L73.6188 18.5728Z" fill="white" fill-opacity="0.9"/>
<path d="M133.191 46.1559L133.67 43.7934H136L135.553 46.1559H133.191ZM0.000183105 46.1559L1.75605 37.3446H6.28938C8.77953 37.3446 9.54573 38.6854 9.54573 40.3456C9.54573 42.6761 8.26873 46.1559 3.92693 46.1559H0.000183105ZM3.79923 38.8131L2.64996 44.6234C2.90536 44.6874 3.16076 44.7194 3.38423 44.7194C6.25746 44.7194 7.05558 41.9736 7.05558 40.6329C7.05558 39.0046 5.87436 38.8131 5.07623 38.8131H3.79923ZM16.1542 43.9531L15.8349 45.5811C14.6856 45.9964 13.5363 46.3156 12.387 46.3156C11.0462 46.3156 9.60958 45.6451 9.60958 44.1126C9.60958 42.1971 11.2697 39.4196 14.3025 39.4196C15.1326 39.4196 16.0903 39.8666 16.0903 40.8884C16.0903 42.8039 13.6321 43.9851 11.972 43.9211C11.972 44.6234 12.5147 44.9109 13.1532 44.9109C14.0471 44.9109 15.388 44.4001 16.1542 43.9531ZM12.1316 42.6121C13.249 42.6441 13.9833 42.2611 13.9833 41.3671C13.9833 41.0479 13.7917 40.8564 13.5044 40.8564C12.7382 40.8884 12.2274 41.9736 12.1316 42.6121ZM16.8246 46.1559L18.7082 36.7699H21.0387L19.187 46.1559H16.8246ZM21.1664 40.8884L21.4218 39.5794H22.188L22.3795 38.5579L24.7739 38.2386L24.5185 39.6114H25.6359L25.3804 40.9201H24.2631L23.7204 43.6339C23.6885 43.8254 23.6565 44.0169 23.6565 44.2724C23.6565 44.6554 23.8162 44.9109 24.1992 44.9109C24.4546 44.9109 24.6781 44.8151 24.9016 44.6554L24.6143 46.0921C24.0716 46.2516 23.5288 46.3794 22.8903 46.3794C21.8049 46.3794 21.1664 45.8686 21.1664 44.9746C21.1664 44.6874 21.2622 44.2724 21.326 43.9849L21.9326 40.9521H21.1664V40.8884ZM30.8397 41.6544L30.9674 40.9841C30.7439 40.8564 30.4884 40.7606 30.2012 40.7606C28.7964 40.7606 28.2537 43.3466 28.2537 43.9531C28.2537 44.1126 28.3174 44.3361 28.5092 44.3361C29.1794 44.3361 30.2969 42.4206 30.8397 41.6544ZM29.9457 46.1559L30.6482 43.3784H30.4884C30.0097 44.4959 28.7644 46.3156 27.4237 46.3156C26.4659 46.3156 25.9232 45.4536 25.9232 44.5596C25.9232 42.4206 27.9982 39.4516 30.2969 39.4516C30.8397 39.4516 31.2227 39.5474 31.3824 39.5474H33.5852L32.2762 46.1559H29.9457ZM46.7062 37.5041L46.3869 39.1964C45.5569 38.8451 44.6632 38.5896 43.7692 38.5896C41.6942 38.5896 40.3852 40.8564 40.3852 42.7399C40.3852 44.0489 41.2152 44.9109 42.5242 44.9109C43.4499 44.9109 44.5674 44.5276 45.4612 44.2724L45.1419 45.9004C43.9927 46.1559 42.8114 46.3794 41.5664 46.3794C39.1402 46.3794 37.9269 44.9746 37.9269 43.0271C37.9269 40.5371 40.0659 37.1531 43.9927 37.1531C44.8867 37.1531 45.8124 37.2809 46.7062 37.5041ZM49.1327 46.3156C47.7917 46.3156 46.3552 45.6451 46.3552 44.1126C46.3552 42.1971 48.0152 39.4196 51.0482 39.4196C52.3889 39.4196 53.8254 40.0901 53.8254 41.6226C53.8254 43.7296 51.9099 46.3156 49.1327 46.3156ZM48.7174 43.6976C48.7174 44.2724 48.9409 44.9109 49.6434 44.9109C50.9522 44.9109 51.4949 43.0591 51.4949 42.0056C51.4949 41.4311 51.2714 40.7926 50.5692 40.7926C49.2602 40.7926 48.7174 42.6441 48.7174 43.6976ZM57.6564 39.5794L56.9542 42.3569H57.1137C57.6884 41.2394 58.7419 39.4196 60.1467 39.4196C60.8489 39.4196 61.2322 39.8666 61.2322 40.4734C61.2322 40.6966 61.2322 40.9521 61.1682 41.3034L60.9767 42.3569H61.1364C61.7109 41.2394 62.7327 39.4196 64.1692 39.4196C64.8714 39.4196 65.4142 39.9306 65.4142 40.6649C65.4142 40.9841 65.3824 41.2394 65.3184 41.5269L64.3927 46.1879H62.1899L63.0199 42.2291C63.0519 42.0696 63.0837 41.9419 63.0837 41.8141C63.0837 41.6864 63.0199 41.5586 62.8602 41.5586C62.4452 41.5586 61.0724 43.6019 60.8172 44.0169L60.3702 46.2196H58.1674L58.9974 42.2611C59.0292 42.1014 59.0612 41.9736 59.0612 41.8461C59.0612 41.7184 58.9974 41.5906 58.8377 41.5906C58.4227 41.5906 57.0499 43.6339 56.7944 44.0489L56.3477 46.2516H54.1767L55.4857 39.6431H57.6564V39.5794ZM72.4697 43.9531L72.1504 45.5811C71.0012 45.9964 69.8519 46.3156 68.7024 46.3156C67.3617 46.3156 65.9252 45.6451 65.9252 44.1126C65.9252 42.1971 67.5852 39.4196 70.6179 39.4196C71.4482 39.4196 72.4059 39.8666 72.4059 40.8884C72.4059 42.8039 69.9477 43.9851 68.2874 43.9211C68.2874 44.6234 68.8302 44.9109 69.4687 44.9109C70.3307 44.9109 71.6714 44.4001 72.4697 43.9531ZM68.4152 42.6121C69.5327 42.6441 70.2669 42.2611 70.2669 41.3671C70.2669 41.0479 70.0752 40.8564 69.7879 40.8564C69.0217 40.8884 68.5109 41.9736 68.4152 42.6121ZM76.7477 39.5794L76.0452 42.3569H76.2049C76.6837 41.2394 77.9289 39.4196 79.2697 39.4196C79.5252 39.4196 79.7484 39.4836 79.8762 39.5474L79.0462 41.5906C78.8867 41.4949 78.7269 41.4311 78.5354 41.4311C77.3542 41.4311 76.3327 43.3466 75.8857 44.1126L75.4707 46.1879H73.1082L74.4172 39.5794H76.7477ZM85.6867 39.8029L85.3674 41.3351C84.8564 41.0799 84.3457 40.7606 83.7392 40.7606C82.4622 40.7606 81.7917 42.5804 81.7917 43.6339C81.7917 44.3361 82.1749 44.7194 82.8772 44.7194C83.4837 44.7194 84.4414 44.3681 84.9842 44.0809L84.6649 45.7409C83.8669 46.0601 82.6857 46.3156 82.0789 46.3156C80.7382 46.3156 79.3017 45.6451 79.3017 44.1126C79.3017 42.1971 80.9617 39.4196 83.9944 39.4196C84.1222 39.4196 84.9842 39.6114 85.6867 39.8029ZM85.7504 46.1559L87.0594 39.5474H89.3899L88.0809 46.1559H85.7504ZM87.2829 38.5259L87.6659 36.6104H89.9964L89.6134 38.5259H87.2829ZM94.7214 41.6544L94.8489 40.9841C94.6254 40.8564 94.3702 40.7606 94.0829 40.7606C92.6782 40.7606 92.1354 43.3466 92.1354 43.9531C92.1354 44.1126 92.1992 44.3361 92.3907 44.3361C93.0292 44.3361 94.1787 42.4206 94.7214 41.6544ZM93.8274 46.1559L94.5297 43.3784H94.3702C93.8912 44.4959 92.6462 46.3156 91.3054 46.3156C90.3477 46.3156 89.8049 45.4536 89.8049 44.5596C89.8049 42.4206 91.8799 39.4516 94.1787 39.4516C94.7214 39.4516 95.1044 39.5474 95.2639 39.5474H97.4669L96.1579 46.1559H93.8274ZM97.7542 46.1559L99.6377 36.7699H101.968L100.117 46.1559H97.7542ZM101.33 47.9436L101.521 47.0499C102.096 47.0499 102.479 46.7624 102.575 46.1559H101.713L102.192 43.7934H104.522L104.107 45.8366C103.852 47.2094 102.447 47.9756 101.33 47.9436ZM118.122 46.1559L118.601 43.7934H120.932L120.485 46.1559H118.122ZM123.486 46.1559L128.21 37.3446H130.541L132.233 46.1559H129.998L129.583 43.9531H126.327L125.146 46.1559H123.486ZM127.093 42.5804H129.328L128.753 39.5156L127.093 42.5804Z" fill="white" fill-opacity="0.9"/>
<path d="M111.801 43.7616C112.344 44.0488 113.11 44.3043 113.972 44.3043C114.579 44.3043 115.153 44.0808 115.153 43.5701C115.153 43.1231 114.77 42.8996 114.004 42.4846C113.142 42.0376 112.152 41.3353 112.152 40.1221C112.152 38.2386 113.781 37.1531 115.824 37.1531C116.973 37.1531 117.612 37.3766 118.027 37.5681L117.356 39.4516C117.069 39.2921 116.398 39.0686 115.664 39.1006C114.866 39.1006 114.483 39.4198 114.483 39.8028C114.483 40.2178 115.058 40.5051 115.728 40.8883C116.814 41.4311 117.516 42.1653 117.516 43.1868C117.516 45.3258 115.696 46.2516 113.749 46.2516C112.376 46.2198 111.482 45.9006 111.067 45.6131L111.801 43.7616Z" fill="white" fill-opacity="0.9"/>
</g>
<defs>
<clipPath id="clip0_103_181">
<rect width="136" height="48" fill="white"/>
</clipPath>
</defs>
</svg>
